<mxfile host="app.diagrams.net" agent="Mozilla/5.0 (Windows NT 10.0; Win64; x64) AppleWebKit/537.36 (KHTML, like Gecko) Chrome/133.0.0.0 Safari/537.36" version="26.0.16">
  <diagram name="PÃ¡gina-1" id="qBkgcTsKBcJQohdeti7l">
    <mxGraphModel dx="1495" dy="1263" grid="0" gridSize="10" guides="1" tooltips="1" connect="1" arrows="1" fold="1" page="0" pageScale="1" pageWidth="827" pageHeight="1169" math="0" shadow="0">
      <root>
        <mxCell id="0" />
        <mxCell id="1" parent="0" />
        <mxCell id="ve465M_cnQb_Jyh_unpd-12" value="&lt;div style=&quot;box-sizing: border-box; width: 100%; background: rgb(228, 228, 228); padding: 2px;&quot;&gt;clientes&lt;/div&gt;&lt;div style=&quot;box-sizing: border-box; width: 100%; background-image: initial; background-position: initial; background-size: initial; background-repeat: initial; background-attachment: initial; background-origin: initial; background-clip: initial; padding: 2px;&quot;&gt;&lt;b&gt;*nro (PK)&lt;/b&gt;&lt;/div&gt;&lt;div style=&quot;box-sizing: border-box; width: 100%; background-image: initial; background-position: initial; background-size: initial; background-repeat: initial; background-attachment: initial; background-origin: initial; background-clip: initial; padding: 2px;&quot;&gt;cliente (UNIQUE)&lt;/div&gt;&lt;div style=&quot;box-sizing: border-box; width: 100%; background-image: initial; background-position: initial; background-size: initial; background-repeat: initial; background-attachment: initial; background-origin: initial; background-clip: initial; padding: 2px;&quot;&gt;nombre&lt;/div&gt;&lt;div style=&quot;box-sizing: border-box; width: 100%; background-image: initial; background-position: initial; background-size: initial; background-repeat: initial; background-attachment: initial; background-origin: initial; background-clip: initial; padding: 2px;&quot;&gt;telefono&lt;/div&gt;&lt;div style=&quot;box-sizing: border-box; width: 100%; background-image: initial; background-position: initial; background-size: initial; background-repeat: initial; background-attachment: initial; background-origin: initial; background-clip: initial; padding: 2px;&quot;&gt;email (UNIQUE)&lt;/div&gt;&lt;div style=&quot;box-sizing: border-box; width: 100%; background-image: initial; background-position: initial; background-size: initial; background-repeat: initial; background-attachment: initial; background-origin: initial; background-clip: initial; padding: 2px;&quot;&gt;ruc (UNIQUE)&lt;/div&gt;&lt;div style=&quot;box-sizing: border-box; width: 100%; background-image: initial; background-position: initial; background-size: initial; background-repeat: initial; background-attachment: initial; background-origin: initial; background-clip: initial; padding: 2px;&quot;&gt;ci (UNIQUE)&lt;/div&gt;" style="verticalAlign=top;align=left;overflow=fill;html=1;whiteSpace=wrap;rotation=0;" vertex="1" parent="1">
          <mxGeometry x="-395" y="40" width="157" height="161" as="geometry" />
        </mxCell>
        <mxCell id="ve465M_cnQb_Jyh_unpd-14" value="&lt;div style=&quot;box-sizing: border-box; width: 100%; background: rgb(228, 228, 228); padding: 2px;&quot;&gt;ventasEncabezado&lt;/div&gt;&lt;div style=&quot;box-sizing: border-box; width: 100%; background-image: initial; background-position: initial; background-size: initial; background-repeat: initial; background-attachment: initial; background-origin: initial; background-clip: initial; padding: 2px;&quot;&gt;&lt;b&gt;*nro (PK)&lt;/b&gt;&lt;/div&gt;&lt;div style=&quot;box-sizing: border-box; width: 100%; background-image: initial; background-position: initial; background-size: initial; background-repeat: initial; background-attachment: initial; background-origin: initial; background-clip: initial; padding: 2px;&quot;&gt;boleta (UNIQUE)&lt;/div&gt;&lt;div style=&quot;box-sizing: border-box; width: 100%; background-image: initial; background-position: initial; background-size: initial; background-repeat: initial; background-attachment: initial; background-origin: initial; background-clip: initial; padding: 2px;&quot;&gt;fecha&lt;/div&gt;&lt;div style=&quot;box-sizing: border-box; width: 100%; background-image: initial; background-position: initial; background-size: initial; background-repeat: initial; background-attachment: initial; background-origin: initial; background-clip: initial; padding: 2px;&quot;&gt;cliente (FK -&amp;gt; clientes.clliente)&lt;/div&gt;&lt;div style=&quot;box-sizing: border-box; width: 100%; background-image: initial; background-position: initial; background-size: initial; background-repeat: initial; background-attachment: initial; background-origin: initial; background-clip: initial; padding: 2px;&quot;&gt;empleado (FK -&amp;gt; empleados.empleado)&lt;/div&gt;&lt;div style=&quot;box-sizing: border-box; width: 100%; background-image: initial; background-position: initial; background-size: initial; background-repeat: initial; background-attachment: initial; background-origin: initial; background-clip: initial; padding: 2px;&quot;&gt;total&lt;/div&gt;" style="verticalAlign=top;align=left;overflow=fill;html=1;whiteSpace=wrap;rotation=0;" vertex="1" parent="1">
          <mxGeometry x="-395" y="270" width="230" height="140" as="geometry" />
        </mxCell>
        <mxCell id="ve465M_cnQb_Jyh_unpd-15" value="&lt;div style=&quot;box-sizing: border-box; width: 100%; background: rgb(228, 228, 228); padding: 2px;&quot;&gt;ventasDetalle&lt;/div&gt;&lt;div style=&quot;box-sizing: border-box; width: 100%; background-image: initial; background-position: initial; background-size: initial; background-repeat: initial; background-attachment: initial; background-origin: initial; background-clip: initial; padding: 2px;&quot;&gt;&lt;b&gt;*nro (PK)&lt;/b&gt;&lt;/div&gt;&lt;div style=&quot;box-sizing: border-box; width: 100%; background-image: initial; background-position: initial; background-size: initial; background-repeat: initial; background-attachment: initial; background-origin: initial; background-clip: initial; padding: 2px;&quot;&gt;boleta &lt;font style=&quot;color: rgb(255, 51, 51);&quot;&gt;&lt;b&gt;(FK -&amp;gt; ventasEncabezado.boleta)&lt;/b&gt;&lt;/font&gt;&lt;/div&gt;&lt;div style=&quot;box-sizing: border-box; width: 100%; background-image: initial; background-position: initial; background-size: initial; background-repeat: initial; background-attachment: initial; background-origin: initial; background-clip: initial; padding: 2px;&quot;&gt;producto &lt;font style=&quot;color: rgb(255, 51, 51);&quot;&gt;&lt;b&gt;(FK -&amp;gt;&amp;nbsp; productos.producto)&lt;/b&gt;&lt;/font&gt;&lt;/div&gt;&lt;div style=&quot;box-sizing: border-box; width: 100%; background-image: initial; background-position: initial; background-size: initial; background-repeat: initial; background-attachment: initial; background-origin: initial; background-clip: initial; padding: 2px;&quot;&gt;cantidad&lt;/div&gt;&lt;div style=&quot;box-sizing: border-box; width: 100%; background-image: initial; background-position: initial; background-size: initial; background-repeat: initial; background-attachment: initial; background-origin: initial; background-clip: initial; padding: 2px;&quot;&gt;precio&lt;/div&gt;" style="verticalAlign=top;align=left;overflow=fill;html=1;whiteSpace=wrap;rotation=0;" vertex="1" parent="1">
          <mxGeometry x="-395" y="508.5" width="230" height="117.5" as="geometry" />
        </mxCell>
        <mxCell id="ve465M_cnQb_Jyh_unpd-16" value="&lt;div style=&quot;box-sizing: border-box; width: 100%; background: rgb(228, 228, 228); padding: 2px;&quot;&gt;&lt;span style=&quot;background-color: transparent;&quot;&gt;proveedores&lt;/span&gt;&lt;span style=&quot;color: rgba(0, 0, 0, 0); font-family: monospace; font-size: 0px; text-wrap-mode: nowrap; background-color: transparent;&quot;&gt;%3CmxGraphModel%3E%3Croot%3E%3CmxCell%20id%3D%220%22%2F%3E%3CmxCell%20id%3D%221%22%20parent%3D%220%22%2F%3E%3CmxCell%20id%3D%222%22%20value%3D%22%26lt%3Bdiv%20style%3D%26quot%3Bbox-sizing%3A%20border-box%3B%20width%3A%20100%25%3B%20background%3A%20rgb(228%2C%20228%2C%20228)%3B%20padding%3A%202px%3B%26quot%3B%26gt%3BventasEncabezado%26lt%3B%2Fdiv%26gt%3B%26lt%3Bdiv%20style%3D%26quot%3Bbox-sizing%3A%20border-box%3B%20width%3A%20100%25%3B%20background-image%3A%20initial%3B%20background-position%3A%20initial%3B%20background-size%3A%20initial%3B%20background-repeat%3A%20initial%3B%20background-attachment%3A%20initial%3B%20background-origin%3A%20initial%3B%20background-clip%3A%20initial%3B%20padding%3A%202px%3B%26quot%3B%26gt%3B*nro%26amp%3Bnbsp%3B%26lt%3B%2Fdiv%26gt%3B%26lt%3Bdiv%20style%3D%26quot%3Bbox-sizing%3A%20border-box%3B%20width%3A%20100%25%3B%20background-image%3A%20initial%3B%20background-position%3A%20initial%3B%20background-size%3A%20initial%3B%20background-repeat%3A%20initial%3B%20background-attachment%3A%20initial%3B%20background-origin%3A%20initial%3B%20background-clip%3A%20initial%3B%20padding%3A%202px%3B%26quot%3B%26gt%3Bboleta%20(UNIQUE)%26lt%3B%2Fdiv%26gt%3B%26lt%3Bdiv%20style%3D%26quot%3Bbox-sizing%3A%20border-box%3B%20width%3A%20100%25%3B%20background-image%3A%20initial%3B%20background-position%3A%20initial%3B%20background-size%3A%20initial%3B%20background-repeat%3A%20initial%3B%20background-attachment%3A%20initial%3B%20background-origin%3A%20initial%3B%20background-clip%3A%20initial%3B%20padding%3A%202px%3B%26quot%3B%26gt%3Bfecha%26lt%3B%2Fdiv%26gt%3B%26lt%3Bdiv%20style%3D%26quot%3Bbox-sizing%3A%20border-box%3B%20width%3A%20100%25%3B%20background-image%3A%20initial%3B%20background-position%3A%20initial%3B%20background-size%3A%20initial%3B%20background-repeat%3A%20initial%3B%20background-attachment%3A%20initial%3B%20background-origin%3A%20initial%3B%20background-clip%3A%20initial%3B%20padding%3A%202px%3B%26quot%3B%26gt%3Bcliente%20(FK%20-%26amp%3Bgt%3B%20clientes.clliente)%26lt%3B%2Fdiv%26gt%3B%26lt%3Bdiv%20style%3D%26quot%3Bbox-sizing%3A%20border-box%3B%20width%3A%20100%25%3B%20background-image%3A%20initial%3B%20background-position%3A%20initial%3B%20background-size%3A%20initial%3B%20background-repeat%3A%20initial%3B%20background-attachment%3A%20initial%3B%20background-origin%3A%20initial%3B%20background-clip%3A%20initial%3B%20padding%3A%202px%3B%26quot%3B%26gt%3Bempleado%20(FK%20-%26amp%3Bgt%3B%20empleados.empleado)%26lt%3B%2Fdiv%26gt%3B%26lt%3Bdiv%20style%3D%26quot%3Bbox-sizing%3A%20border-box%3B%20width%3A%20100%25%3B%20background-image%3A%20initial%3B%20background-position%3A%20initial%3B%20background-size%3A%20initial%3B%20background-repeat%3A%20initial%3B%20background-attachment%3A%20initial%3B%20background-origin%3A%20initial%3B%20background-clip%3A%20initial%3B%20padding%3A%202px%3B%26quot%3B%26gt%3Btotal%26lt%3B%2Fdiv%26gt%3B%22%20style%3D%22verticalAlign%3Dtop%3Balign%3Dleft%3Boverflow%3Dfill%3Bhtml%3D1%3BwhiteSpace%3Dwrap%3Brotation%3D0%3B%22%20vertex%3D%221%22%20parent%3D%221%22%3E%3CmxGeometry%20x%3D%22-395%22%20y%3D%22238%22%20width%3D%22260%22%20height%3D%22173%22%20as%3D%22geometry%22%2F%3E%3C%2FmxCell%3E%3C%2Froot%3E%3C%2FmxGraphModel%3Epr&lt;/span&gt;&lt;/div&gt;&lt;div style=&quot;box-sizing: border-box; width: 100%; background-image: initial; background-position: initial; background-size: initial; background-repeat: initial; background-attachment: initial; background-origin: initial; background-clip: initial; padding: 2px;&quot;&gt;&lt;b&gt;*nro (PK)&lt;/b&gt;&lt;/div&gt;&lt;div style=&quot;box-sizing: border-box; width: 100%; background-image: initial; background-position: initial; background-size: initial; background-repeat: initial; background-attachment: initial; background-origin: initial; background-clip: initial; padding: 2px;&quot;&gt;proveedor (UNIQUE)&lt;/div&gt;&lt;div style=&quot;box-sizing: border-box; width: 100%; background-image: initial; background-position: initial; background-size: initial; background-repeat: initial; background-attachment: initial; background-origin: initial; background-clip: initial; padding: 2px;&quot;&gt;nombre&amp;nbsp;&lt;/div&gt;&lt;div style=&quot;box-sizing: border-box; width: 100%; background-image: initial; background-position: initial; background-size: initial; background-repeat: initial; background-attachment: initial; background-origin: initial; background-clip: initial; padding: 2px;&quot;&gt;telefono&lt;/div&gt;&lt;div style=&quot;box-sizing: border-box; width: 100%; background-image: initial; background-position: initial; background-size: initial; background-repeat: initial; background-attachment: initial; background-origin: initial; background-clip: initial; padding: 2px;&quot;&gt;email (UNIQUE)&lt;/div&gt;&lt;div style=&quot;box-sizing: border-box; width: 100%; background-image: initial; background-position: initial; background-size: initial; background-repeat: initial; background-attachment: initial; background-origin: initial; background-clip: initial; padding: 2px;&quot;&gt;ci (UNIQUE)&lt;/div&gt;&lt;div style=&quot;box-sizing: border-box; width: 100%; background-image: initial; background-position: initial; background-size: initial; background-repeat: initial; background-attachment: initial; background-origin: initial; background-clip: initial; padding: 2px;&quot;&gt;ruc (UNIQUE)&lt;/div&gt;" style="verticalAlign=top;align=left;overflow=fill;html=1;whiteSpace=wrap;rotation=0;" vertex="1" parent="1">
          <mxGeometry x="235" y="36" width="137" height="177" as="geometry" />
        </mxCell>
        <mxCell id="ve465M_cnQb_Jyh_unpd-17" value="&lt;div style=&quot;box-sizing: border-box; width: 100%; background: rgb(228, 228, 228); padding: 2px;&quot;&gt;&lt;span style=&quot;background-color: transparent;&quot;&gt;&lt;font style=&quot;color: rgb(20, 20, 20);&quot;&gt;productos&lt;/font&gt;&lt;/span&gt;&lt;span style=&quot;color: rgba(0, 0, 0, 0); font-family: monospace; font-size: 0px; text-wrap-mode: nowrap; background-color: transparent;&quot;&gt;%3CmxGraphModel%3E%3Croot%3E%3CmxCell%20id%3D%220%22%2F%3E%3CmxCell%20id%3D%221%22%20parent%3D%220%22%2F%3E%3CmxCell%20id%3D%222%22%20value%3D%22%26lt%3Bdiv%20style%3D%26quot%3Bbox-sizing%3A%20border-box%3B%20width%3A%20100%25%3B%20background%3A%20rgb(228%2C%20228%2C%20228)%3B%20padding%3A%202px%3B%26quot%3B%26gt%3BventasEncabezado%26lt%3B%2Fdiv%26gt%3B%26lt%3Bdiv%20style%3D%26quot%3Bbox-sizing%3A%20border-box%3B%20width%3A%20100%25%3B%20background-image%3A%20initial%3B%20background-position%3A%20initial%3B%20background-size%3A%20initial%3B%20background-repeat%3A%20initial%3B%20background-attachment%3A%20initial%3B%20background-origin%3A%20initial%3B%20background-clip%3A%20initial%3B%20padding%3A%202px%3B%26quot%3B%26gt%3B*nro%26amp%3Bnbsp%3B%26lt%3B%2Fdiv%26gt%3B%26lt%3Bdiv%20style%3D%26quot%3Bbox-sizing%3A%20border-box%3B%20width%3A%20100%25%3B%20background-image%3A%20initial%3B%20background-position%3A%20initial%3B%20background-size%3A%20initial%3B%20background-repeat%3A%20initial%3B%20background-attachment%3A%20initial%3B%20background-origin%3A%20initial%3B%20background-clip%3A%20initial%3B%20padding%3A%202px%3B%26quot%3B%26gt%3Bboleta%20(UNIQUE)%26lt%3B%2Fdiv%26gt%3B%26lt%3Bdiv%20style%3D%26quot%3Bbox-sizing%3A%20border-box%3B%20width%3A%20100%25%3B%20background-image%3A%20initial%3B%20background-position%3A%20initial%3B%20background-size%3A%20initial%3B%20background-repeat%3A%20initial%3B%20background-attachment%3A%20initial%3B%20background-origin%3A%20initial%3B%20background-clip%3A%20initial%3B%20padding%3A%202px%3B%26quot%3B%26gt%3Bfecha%26lt%3B%2Fdiv%26gt%3B%26lt%3Bdiv%20style%3D%26quot%3Bbox-sizing%3A%20border-box%3B%20width%3A%20100%25%3B%20background-image%3A%20initial%3B%20background-position%3A%20initial%3B%20background-size%3A%20initial%3B%20background-repeat%3A%20initial%3B%20background-attachment%3A%20initial%3B%20background-origin%3A%20initial%3B%20background-clip%3A%20initial%3B%20padding%3A%202px%3B%26quot%3B%26gt%3Bcliente%20(FK%20-%26amp%3Bgt%3B%20clientes.clliente)%26lt%3B%2Fdiv%26gt%3B%26lt%3Bdiv%20style%3D%26quot%3Bbox-sizing%3A%20border-box%3B%20width%3A%20100%25%3B%20background-image%3A%20initial%3B%20background-position%3A%20initial%3B%20background-size%3A%20initial%3B%20background-repeat%3A%20initial%3B%20background-attachment%3A%20initial%3B%20background-origin%3A%20initial%3B%20background-clip%3A%20initial%3B%20padding%3A%202px%3B%26quot%3B%26gt%3Bempleado%20(FK%20-%26amp%3Bgt%3B%20empleados.empleado)%26lt%3B%2Fdiv%26gt%3B%26lt%3Bdiv%20style%3D%26quot%3Bbox-sizing%3A%20border-box%3B%20width%3A%20100%25%3B%20background-image%3A%20initial%3B%20background-position%3A%20initial%3B%20background-size%3A%20initial%3B%20background-repeat%3A%20initial%3B%20background-attachment%3A%20initial%3B%20background-origin%3A%20initial%3B%20background-clip%3A%20initial%3B%20padding%3A%202px%3B%26quot%3B%26gt%3Btotal%26lt%3B%2Fdiv%26gt%3B%22%20style%3D%22verticalAlign%3Dtop%3Balign%3Dleft%3Boverflow%3Dfill%3Bhtml%3D1%3BwhiteSpace%3Dwrap%3Brotation%3D0%3B%22%20vertex%3D%221%22%20parent%3D%221%22%3E%3CmxGeometry%20x%3D%22-395%22%20y%3D%22238%22%20width%3D%22260%22%20height%3D%22173%22%20as%3D%22geometry%22%2F%3E%3C%2FmxCell%3E%3C%2Froot%3E%3C%2FmxGraphModel%3Epr&lt;/span&gt;&lt;/div&gt;&lt;div style=&quot;box-sizing: border-box; width: 100%; background-image: initial; background-position: initial; background-size: initial; background-repeat: initial; background-attachment: initial; background-origin: initial; background-clip: initial; padding: 2px;&quot;&gt;&lt;b&gt;*nro (PK)&lt;/b&gt;&lt;/div&gt;&lt;div style=&quot;box-sizing: border-box; width: 100%; background-image: initial; background-position: initial; background-size: initial; background-repeat: initial; background-attachment: initial; background-origin: initial; background-clip: initial; padding: 2px;&quot;&gt;producto (UNIQUE)&lt;/div&gt;&lt;div style=&quot;box-sizing: border-box; width: 100%; background-image: initial; background-position: initial; background-size: initial; background-repeat: initial; background-attachment: initial; background-origin: initial; background-clip: initial; padding: 2px;&quot;&gt;descripcion&lt;/div&gt;&lt;div style=&quot;box-sizing: border-box; width: 100%; background-image: initial; background-position: initial; background-size: initial; background-repeat: initial; background-attachment: initial; background-origin: initial; background-clip: initial; padding: 2px;&quot;&gt;descripcionLarga&lt;/div&gt;&lt;div style=&quot;box-sizing: border-box; width: 100%; background-image: initial; background-position: initial; background-size: initial; background-repeat: initial; background-attachment: initial; background-origin: initial; background-clip: initial; padding: 2px;&quot;&gt;marca&lt;/div&gt;&lt;div style=&quot;box-sizing: border-box; width: 100%; background-image: initial; background-position: initial; background-size: initial; background-repeat: initial; background-attachment: initial; background-origin: initial; background-clip: initial; padding: 2px;&quot;&gt;precio&lt;/div&gt;&lt;div style=&quot;box-sizing: border-box; width: 100%; background-image: initial; background-position: initial; background-size: initial; background-repeat: initial; background-attachment: initial; background-origin: initial; background-clip: initial; padding: 2px;&quot;&gt;stock&lt;/div&gt;&lt;div style=&quot;box-sizing: border-box; width: 100%; background-image: initial; background-position: initial; background-size: initial; background-repeat: initial; background-attachment: initial; background-origin: initial; background-clip: initial; padding: 2px;&quot;&gt;proveedor &lt;font style=&quot;color: rgb(255, 51, 51);&quot;&gt;&lt;b&gt;(FK -&amp;gt; proveedores)&lt;/b&gt;&lt;/font&gt;&lt;/div&gt;" style="verticalAlign=top;align=left;overflow=fill;html=1;whiteSpace=wrap;rotation=0;" vertex="1" parent="1">
          <mxGeometry x="-71" y="258" width="176" height="173" as="geometry" />
        </mxCell>
        <mxCell id="ve465M_cnQb_Jyh_unpd-20" value="1:N" style="endArrow=block;endFill=1;html=1;edgeStyle=orthogonalEdgeStyle;align=left;verticalAlign=top;rounded=0;fontSize=12;startSize=8;endSize=8;curved=1;exitX=0.405;exitY=0.997;exitDx=0;exitDy=0;exitPerimeter=0;entryX=0.276;entryY=0;entryDx=0;entryDy=0;entryPerimeter=0;" edge="1" parent="1" source="ve465M_cnQb_Jyh_unpd-12" target="ve465M_cnQb_Jyh_unpd-14">
          <mxGeometry x="-0.4545" y="1" relative="1" as="geometry">
            <mxPoint x="-331" y="199" as="sourcePoint" />
            <mxPoint x="-331" y="265" as="targetPoint" />
            <mxPoint as="offset" />
          </mxGeometry>
        </mxCell>
        <mxCell id="ve465M_cnQb_Jyh_unpd-22" value="1:N" style="endArrow=block;endFill=1;html=1;edgeStyle=orthogonalEdgeStyle;align=left;verticalAlign=top;rounded=0;fontSize=12;startSize=8;endSize=8;curved=1;exitX=0.304;exitY=1;exitDx=0;exitDy=0;exitPerimeter=0;" edge="1" parent="1" source="ve465M_cnQb_Jyh_unpd-14">
          <mxGeometry x="-0.4545" y="1" relative="1" as="geometry">
            <mxPoint x="-325" y="440" as="sourcePoint" />
            <mxPoint x="-325" y="506" as="targetPoint" />
            <mxPoint as="offset" />
          </mxGeometry>
        </mxCell>
        <mxCell id="ve465M_cnQb_Jyh_unpd-24" value="1:N" style="endArrow=block;endFill=1;html=1;edgeStyle=orthogonalEdgeStyle;align=left;verticalAlign=top;rounded=0;fontSize=12;startSize=8;endSize=8;curved=1;exitX=0.318;exitY=0.998;exitDx=0;exitDy=0;exitPerimeter=0;entryX=0.325;entryY=0.011;entryDx=0;entryDy=0;entryPerimeter=0;" edge="1" parent="1" source="ve465M_cnQb_Jyh_unpd-16" target="ve465M_cnQb_Jyh_unpd-27">
          <mxGeometry x="-0.4545" y="1" relative="1" as="geometry">
            <mxPoint x="-30" y="440" as="sourcePoint" />
            <mxPoint x="-30" y="506" as="targetPoint" />
            <mxPoint as="offset" />
          </mxGeometry>
        </mxCell>
        <mxCell id="ve465M_cnQb_Jyh_unpd-26" value="&lt;div style=&quot;box-sizing: border-box; width: 100%; background: rgb(228, 228, 228); padding: 2px;&quot;&gt;empleados&lt;/div&gt;&lt;div style=&quot;box-sizing: border-box; width: 100%; background-image: initial; background-position: initial; background-size: initial; background-repeat: initial; background-attachment: initial; background-origin: initial; background-clip: initial; padding: 2px;&quot;&gt;&lt;div style=&quot;background-image: initial; background-position: initial; background-size: initial; background-repeat: initial; background-attachment: initial; background-origin: initial; background-clip: initial; box-sizing: border-box; width: 260px; padding: 2px;&quot;&gt;&lt;b&gt;*nro (PK)&lt;/b&gt;&lt;/div&gt;&lt;div style=&quot;background-image: initial; background-position: initial; background-size: initial; background-repeat: initial; background-attachment: initial; background-origin: initial; background-clip: initial; box-sizing: border-box; width: 260px; padding: 2px;&quot;&gt;empleado (UNIQUE)&lt;/div&gt;&lt;div style=&quot;background-image: initial; background-position: initial; background-size: initial; background-repeat: initial; background-attachment: initial; background-origin: initial; background-clip: initial; box-sizing: border-box; width: 260px; padding: 2px;&quot;&gt;nombre&amp;nbsp;&lt;/div&gt;&lt;div style=&quot;background-image: initial; background-position: initial; background-size: initial; background-repeat: initial; background-attachment: initial; background-origin: initial; background-clip: initial; box-sizing: border-box; width: 260px; padding: 2px;&quot;&gt;puesto&lt;/div&gt;&lt;div style=&quot;background-image: initial; background-position: initial; background-size: initial; background-repeat: initial; background-attachment: initial; background-origin: initial; background-clip: initial; box-sizing: border-box; width: 260px; padding: 2px;&quot;&gt;ci (UNIQUE)&lt;/div&gt;&lt;/div&gt;" style="verticalAlign=top;align=left;overflow=fill;html=1;whiteSpace=wrap;rotation=0;" vertex="1" parent="1">
          <mxGeometry x="-61.5" y="40" width="157" height="127" as="geometry" />
        </mxCell>
        <mxCell id="ve465M_cnQb_Jyh_unpd-27" value="&lt;div style=&quot;box-sizing: border-box; width: 100%; background: rgb(228, 228, 228); padding: 2px;&quot;&gt;&lt;span style=&quot;background-color: transparent;&quot;&gt;&lt;font style=&quot;color: rgb(20, 20, 20);&quot;&gt;comprasEncabezado&lt;/font&gt;&lt;/span&gt;&lt;span style=&quot;color: rgba(0, 0, 0, 0); font-family: monospace; font-size: 0px; text-wrap-mode: nowrap; background-color: transparent;&quot;&gt;%3CmxGraphModel%3E%3Croot%3E%3CmxCell%20id%3D%220%22%2F%3E%3CmxCell%20id%3D%221%22%20parent%3D%220%22%2F%3E%3CmxCell%20id%3D%222%22%20value%3D%22%26lt%3Bdiv%20style%3D%26quot%3Bbox-sizing%3A%20border-box%3B%20width%3A%20100%25%3B%20background%3A%20rgb(228%2C%20228%2C%20228)%3B%20padding%3A%202px%3B%26quot%3B%26gt%3BventasEncabezado%26lt%3B%2Fdiv%26gt%3B%26lt%3Bdiv%20style%3D%26quot%3Bbox-sizing%3A%20border-box%3B%20width%3A%20100%25%3B%20background-image%3A%20initial%3B%20background-position%3A%20initial%3B%20background-size%3A%20initial%3B%20background-repeat%3A%20initial%3B%20background-attachment%3A%20initial%3B%20background-origin%3A%20initial%3B%20background-clip%3A%20initial%3B%20padding%3A%202px%3B%26quot%3B%26gt%3B*nro%26amp%3Bnbsp%3B%26lt%3B%2Fdiv%26gt%3B%26lt%3Bdiv%20style%3D%26quot%3Bbox-sizing%3A%20border-box%3B%20width%3A%20100%25%3B%20background-image%3A%20initial%3B%20background-position%3A%20initial%3B%20background-size%3A%20initial%3B%20background-repeat%3A%20initial%3B%20background-attachment%3A%20initial%3B%20background-origin%3A%20initial%3B%20background-clip%3A%20initial%3B%20padding%3A%202px%3B%26quot%3B%26gt%3Bboleta%20(UNIQUE)%26lt%3B%2Fdiv%26gt%3B%26lt%3Bdiv%20style%3D%26quot%3Bbox-sizing%3A%20border-box%3B%20width%3A%20100%25%3B%20background-image%3A%20initial%3B%20background-position%3A%20initial%3B%20background-size%3A%20initial%3B%20background-repeat%3A%20initial%3B%20background-attachment%3A%20initial%3B%20background-origin%3A%20initial%3B%20background-clip%3A%20initial%3B%20padding%3A%202px%3B%26quot%3B%26gt%3Bfecha%26lt%3B%2Fdiv%26gt%3B%26lt%3Bdiv%20style%3D%26quot%3Bbox-sizing%3A%20border-box%3B%20width%3A%20100%25%3B%20background-image%3A%20initial%3B%20background-position%3A%20initial%3B%20background-size%3A%20initial%3B%20background-repeat%3A%20initial%3B%20background-attachment%3A%20initial%3B%20background-origin%3A%20initial%3B%20background-clip%3A%20initial%3B%20padding%3A%202px%3B%26quot%3B%26gt%3Bcliente%20(FK%20-%26amp%3Bgt%3B%20clientes.clliente)%26lt%3B%2Fdiv%26gt%3B%26lt%3Bdiv%20style%3D%26quot%3Bbox-sizing%3A%20border-box%3B%20width%3A%20100%25%3B%20background-image%3A%20initial%3B%20background-position%3A%20initial%3B%20background-size%3A%20initial%3B%20background-repeat%3A%20initial%3B%20background-attachment%3A%20initial%3B%20background-origin%3A%20initial%3B%20background-clip%3A%20initial%3B%20padding%3A%202px%3B%26quot%3B%26gt%3Bempleado%20(FK%20-%26amp%3Bgt%3B%20empleados.empleado)%26lt%3B%2Fdiv%26gt%3B%26lt%3Bdiv%20style%3D%26quot%3Bbox-sizing%3A%20border-box%3B%20width%3A%20100%25%3B%20background-image%3A%20initial%3B%20background-position%3A%20initial%3B%20background-size%3A%20initial%3B%20background-repeat%3A%20initial%3B%20background-attachment%3A%20initial%3B%20background-origin%3A%20initial%3B%20background-clip%3A%20initial%3B%20padding%3A%202px%3B%26quot%3B%26gt%3Btotal%26lt%3B%2Fdiv%26gt%3B%22%20style%3D%22verticalAlign%3Dtop%3Balign%3Dleft%3Boverflow%3Dfill%3Bhtml%3D1%3BwhiteSpace%3Dwrap%3Brotation%3D0%3B%22%20vertex%3D%221%22%20parent%3D%221%22%3E%3CmxGeometry%20x%3D%22-395%22%20y%3D%22238%22%20width%3D%22260%22%20height%3D%22173%22%20as%3D%22geometry%22%2F%3E%3C%2FmxCell%3E%3C%2Froot%3E%3C%2FmxGraphModel%3Epr&lt;/span&gt;&lt;/div&gt;&lt;div style=&quot;box-sizing: border-box; width: 100%; background-image: initial; background-position: initial; background-size: initial; background-repeat: initial; background-attachment: initial; background-origin: initial; background-clip: initial; padding: 2px;&quot;&gt;&lt;b&gt;*nro (PK)&lt;/b&gt;&lt;/div&gt;&lt;div style=&quot;box-sizing: border-box; width: 100%; background-image: initial; background-position: initial; background-size: initial; background-repeat: initial; background-attachment: initial; background-origin: initial; background-clip: initial; padding: 2px;&quot;&gt;boleta (UNIQUE)&lt;/div&gt;&lt;div style=&quot;box-sizing: border-box; width: 100%; background-image: initial; background-position: initial; background-size: initial; background-repeat: initial; background-attachment: initial; background-origin: initial; background-clip: initial; padding: 2px;&quot;&gt;fecha&lt;/div&gt;&lt;div style=&quot;box-sizing: border-box; width: 100%; background-image: initial; background-position: initial; background-size: initial; background-repeat: initial; background-attachment: initial; background-origin: initial; background-clip: initial; padding: 2px;&quot;&gt;&lt;span style=&quot;background-color: transparent; color: light-dark(rgb(0, 0, 0), rgb(255, 255, 255));&quot;&gt;proveedor &lt;/span&gt;&lt;font style=&quot;background-color: transparent; color: rgb(255, 51, 51);&quot;&gt;&lt;b&gt;(FK -&amp;gt; proveedores)&lt;/b&gt;&lt;/font&gt;&lt;/div&gt;&lt;div style=&quot;box-sizing: border-box; width: 100%; background-image: initial; background-position: initial; background-size: initial; background-repeat: initial; background-attachment: initial; background-origin: initial; background-clip: initial; padding: 2px;&quot;&gt;total&lt;/div&gt;" style="verticalAlign=top;align=left;overflow=fill;html=1;whiteSpace=wrap;rotation=0;" vertex="1" parent="1">
          <mxGeometry x="221" y="282" width="176" height="125" as="geometry" />
        </mxCell>
        <mxCell id="ve465M_cnQb_Jyh_unpd-29" value="&lt;div style=&quot;box-sizing: border-box; width: 100%; background: rgb(228, 228, 228); padding: 2px;&quot;&gt;comprasDetalle&lt;/div&gt;&lt;div style=&quot;box-sizing: border-box; width: 100%; background-image: initial; background-position: initial; background-size: initial; background-repeat: initial; background-attachment: initial; background-origin: initial; background-clip: initial; padding: 2px;&quot;&gt;&lt;b&gt;*nro (PK)&lt;/b&gt;&lt;/div&gt;&lt;div style=&quot;box-sizing: border-box; width: 100%; background-image: initial; background-position: initial; background-size: initial; background-repeat: initial; background-attachment: initial; background-origin: initial; background-clip: initial; padding: 2px;&quot;&gt;boleta &lt;font style=&quot;color: rgb(255, 51, 51);&quot;&gt;&lt;b&gt;(FK -&amp;gt; comprasEncabezado.boleta)&lt;/b&gt;&lt;/font&gt;&lt;/div&gt;&lt;div style=&quot;box-sizing: border-box; width: 100%; background-image: initial; background-position: initial; background-size: initial; background-repeat: initial; background-attachment: initial; background-origin: initial; background-clip: initial; padding: 2px;&quot;&gt;producto &lt;font style=&quot;color: rgb(255, 51, 51);&quot;&gt;&lt;b&gt;(FK -&amp;gt;&amp;nbsp; productos.producto)&lt;/b&gt;&lt;/font&gt;&lt;/div&gt;&lt;div style=&quot;box-sizing: border-box; width: 100%; background-image: initial; background-position: initial; background-size: initial; background-repeat: initial; background-attachment: initial; background-origin: initial; background-clip: initial; padding: 2px;&quot;&gt;cantidad&lt;/div&gt;&lt;div style=&quot;box-sizing: border-box; width: 100%; background-image: initial; background-position: initial; background-size: initial; background-repeat: initial; background-attachment: initial; background-origin: initial; background-clip: initial; padding: 2px;&quot;&gt;precio&lt;/div&gt;" style="verticalAlign=top;align=left;overflow=fill;html=1;whiteSpace=wrap;rotation=0;" vertex="1" parent="1">
          <mxGeometry x="221" y="465" width="267" height="117.5" as="geometry" />
        </mxCell>
        <mxCell id="ve465M_cnQb_Jyh_unpd-31" value="1:N" style="endArrow=block;endFill=1;html=1;edgeStyle=orthogonalEdgeStyle;align=left;verticalAlign=top;rounded=0;fontSize=12;startSize=8;endSize=8;curved=1;exitX=0.325;exitY=0.999;exitDx=0;exitDy=0;exitPerimeter=0;entryX=0.213;entryY=0.009;entryDx=0;entryDy=0;entryPerimeter=0;" edge="1" parent="1" source="ve465M_cnQb_Jyh_unpd-27" target="ve465M_cnQb_Jyh_unpd-29">
          <mxGeometry x="-0.4545" y="1" relative="1" as="geometry">
            <mxPoint x="279" y="406" as="sourcePoint" />
            <mxPoint x="292" y="475" as="targetPoint" />
            <mxPoint as="offset" />
          </mxGeometry>
        </mxCell>
      </root>
    </mxGraphModel>
  </diagram>
</mxfile>
